# xmcd CD database file
#
# Track frame offsets:
#	150
#	23384
#	48275
#	69839
#	89452
#	109760
#	137240
#	160422
#	181303
#	205720
#	224556
#	247771
#	267960
#	291373
#	312547
#
# Disc length: 4449 seconds
#
# Revision: 1
# Processed by: cddbd v1.5.2PL0 Copyright (c) Steve Scherf et al.
# Submitted via: CDex 1.91
#
DISCID=d6115f0f
DTITLE=Various Artist - The Romantic Jazz Collection
DYEAR=2008
DGENRE=Jazz
TTITLE0=Ed Smith - Warm Breeze
TTITLE1=Wayne Jones - It's A New Day
TTITLE2=Wayne Jones - If You Care
TTITLE3=Ed Smith - Just Say...
TTITLE4=Ed Smith - Romance Dance
TTITLE5=Wayne Jones - Until Tomorrow
TTITLE6=Ed Smith - No More Loneliness
TTITLE7=Ed Smith - A Time To Reflect
TTITLE8=Rob Arthur - Alone Together
TTITLE9=Ed Smith - Moonshadows
TTITLE10=Wayne Jones - Every Monday
TTITLE11=Wayne Jones - Afterglow
TTITLE12=So Beautiful
TTITLE13=Wayne Jones - The Look In Your Eyes
TTITLE14=Wayne Jones - A Perfect Evening
EXTD=YEAR: 2008
EXTT0=
EXTT1=
EXTT2=
EXTT3=
EXTT4=
EXTT5=
EXTT6=
EXTT7=
EXTT8=
EXTT9=
EXTT10=
EXTT11=
EXTT12=
EXTT13=
EXTT14=
PLAYORDER=
